<svg height="457pt" viewBox="-55 0 457 457.14286" width="457pt" xmlns="http://www.w3.org/2000/svg"><path d="m323.929688 0h-301.375c-12.394532 0-22.4843755 10.085938-22.4843755 22.476562v412.1875c0 12.394532 10.0898435 22.480469 22.4843755 22.480469h301.375c12.390624 0 22.480468-10.085937 22.480468-22.480469v-412.1875c0-12.390624-10.089844-22.476562-22.480468-22.476562zm4.195312 434.664062c0 2.3125-1.882812 4.191407-4.195312 4.191407h-301.375c-2.3125 0-4.199219-1.878907-4.199219-4.191407v-412.1875c0-2.3125 1.886719-4.191406 4.199219-4.191406h301.375c2.3125 0 4.195312 1.878906 4.195312 4.191406zm0 0"/><path d="m288.667969 47.632812h-230.855469c-5.054688 0-9.144531 4.09375-9.144531 9.144532v87.589844c0 5.046874 4.089843 9.140624 9.144531 9.140624h230.855469c5.054687 0 9.144531-4.09375 9.144531-9.140624v-87.589844c0-5.050782-4.089844-9.144532-9.144531-9.144532zm-9.140625 87.589844h-212.570313v-69.304687h212.570313zm0 0"/><path d="m94.214844 199.222656h-16.570313c-5.054687 0-9.144531 4.09375-9.144531 9.144532 0 5.046874 4.089844 9.140624 9.144531 9.140624h16.570313c5.054687 0 9.140625-4.09375 9.140625-9.140624 0-5.050782-4.085938-9.144532-9.140625-9.144532zm0 0"/><path d="m181.570312 199.222656h-16.570312c-5.054688 0-9.144531 4.09375-9.144531 9.144532 0 5.046874 4.089843 9.140624 9.144531 9.140624h16.570312c5.054688 0 9.144532-4.09375 9.144532-9.140624 0-5.050782-4.089844-9.144532-9.144532-9.144532zm0 0"/><path d="m268.929688 199.222656h-16.574219c-5.050781 0-9.140625 4.09375-9.140625 9.144532 0 5.046874 4.089844 9.140624 9.140625 9.140624h16.574219c5.050781 0 9.140624-4.09375 9.140624-9.140624 0-5.050782-4.089843-9.144532-9.140624-9.144532zm0 0"/><path d="m94.214844 263.222656h-16.570313c-5.054687 0-9.144531 4.09375-9.144531 9.144532 0 5.046874 4.089844 9.140624 9.144531 9.140624h16.570313c5.054687 0 9.140625-4.09375 9.140625-9.140624 0-5.050782-4.085938-9.144532-9.140625-9.144532zm0 0"/><path d="m181.570312 263.222656h-16.570312c-5.054688 0-9.144531 4.09375-9.144531 9.144532 0 5.046874 4.089843 9.140624 9.144531 9.140624h16.570312c5.054688 0 9.144532-4.09375 9.144532-9.140624 0-5.050782-4.089844-9.144532-9.144532-9.144532zm0 0"/><path d="m268.929688 263.222656h-16.574219c-5.050781 0-9.140625 4.09375-9.140625 9.144532 0 5.046874 4.089844 9.140624 9.140625 9.140624h16.574219c5.050781 0 9.140624-4.09375 9.140624-9.140624 0-5.050782-4.089843-9.144532-9.140624-9.144532zm0 0"/><path d="m94.214844 327.222656h-16.570313c-5.054687 0-9.144531 4.09375-9.144531 9.144532 0 5.046874 4.089844 9.140624 9.144531 9.140624h16.570313c5.054687 0 9.140625-4.09375 9.140625-9.140624 0-5.050782-4.085938-9.144532-9.140625-9.144532zm0 0"/><path d="m181.570312 327.222656h-16.570312c-5.054688 0-9.144531 4.09375-9.144531 9.144532 0 5.046874 4.089843 9.140624 9.144531 9.140624h16.570312c5.054688 0 9.144532-4.09375 9.144532-9.140624 0-5.050782-4.089844-9.144532-9.144532-9.144532zm0 0"/><path d="m268.929688 327.222656h-16.574219c-5.050781 0-9.140625 4.09375-9.140625 9.144532 0 5.046874 4.089844 9.140624 9.140625 9.140624h16.574219c5.050781 0 9.140624-4.09375 9.140624-9.140624 0-5.050782-4.089843-9.144532-9.140624-9.144532zm0 0"/><path d="m94.214844 391.222656h-16.570313c-5.054687 0-9.144531 4.09375-9.144531 9.144532 0 5.046874 4.089844 9.140624 9.144531 9.140624h16.570313c5.054687 0 9.140625-4.09375 9.140625-9.140624 0-5.050782-4.085938-9.144532-9.140625-9.144532zm0 0"/><path d="m181.570312 391.222656h-16.570312c-5.054688 0-9.144531 4.09375-9.144531 9.144532 0 5.046874 4.089843 9.140624 9.144531 9.140624h16.570312c5.054688 0 9.144532-4.09375 9.144532-9.140624 0-5.050782-4.089844-9.144532-9.144532-9.144532zm0 0"/><path d="m268.929688 391.222656h-16.574219c-5.050781 0-9.140625 4.09375-9.140625 9.144532 0 5.046874 4.089844 9.140624 9.140625 9.140624h16.574219c5.050781 0 9.140624-4.09375 9.140624-9.140624 0-5.050782-4.089843-9.144532-9.140624-9.144532zm0 0"/></svg>